<svg xmlns="http://www.w3.org/2000/svg" viewBox="0 0 500 500">
  <rect width="500" height="500" fill="#ff5500" />
  <g fill="#ffffff">
    <path d="M96 163h14.3l10.4 42.4c1.7 6.9 3.1 13.4 4.3 19.5h.4c1.4-6.1 3.1-12.8 5.1-19.5l12.7-42.4h13.9l13 41.8c1.9 6.6 3.7 13.5 5.3 20.1h.4c1.1-6.3 2.6-13.1 4.4-20.3l10.4-41.6h13.6l-23 79h-14.2l-12.7-40.4c-1.9-6.3-3.5-12.3-4.9-18.7h-.4c-1.3 6.3-2.8 12.3-4.7 18.7l-12.2 40.4h-14.2L96 163z"/>
    <path d="M222.1 163h13.8v44.1c0 21.4 9.4 26.1 20.1 26.1 12.7 0 21.1-7.2 21.1-26.1V163h13.8v42.8c0 30.5-16 37.4-35.3 37.4-18 0-33.5-6.4-33.5-36.8V163z"/>
    <path d="M312.7 178.1c3.5-1.3 10.8-2.9 19.5-2.9 9.3 0 15.3 1.7 19.7 5.2 3.9 2.9 6.3 7.3 6.3 12.7 0 6.9-4.6 13-13.1 15.9v.4c9.2 1.9 16.1 8.1 16.1 17.6 0 6.1-2.4 10.7-6.2 14.1-5.1 4.5-13.3 6.6-25.3 6.6-7.4 0-13-1.1-16.1-2.1l.1-11.7c3.2 1.1 8.1 2.4 14.7 2.4 8.6 0 13.8-3.5 13.8-9.9 0-7.3-7-10.5-14.9-10.5h-6.8v-11.1h6.9c7.2 0 13.2-3.8 13.2-9.5 0-5.2-4-8.2-11.3-8.2-5.5 0-10.4 1.6-13.3 2.9l-3.3-11.9z"/>
    <path d="M122.8 250.5h13.8v33.5h.4c2.4-3.4 4.9-6.5 7.2-9.5l27.9-34.3h17.1l-33.3 38.1 35.8 53.5h-17.1l-29.3-45.4-8.7 9.7v35.7h-13.8v-91.3z"/>
    <path d="M210.2 250.5h13.8v35.6h.4c2.3-4.5 5.9-8.5 10.4-11.2 4.4-2.7 9.7-4.4 15.4-4.4 11.2 0 29.2 6.9 29.2 35.6v35.7h-13.8v-34.4c0-13.5-5-24.9-19.3-24.9-9.9 0-17.5 6.9-20.2 15.1-1 2.3-1.1 4.9-1.1 7.8v36.4h-14.8v-91.3z"/>
    <path d="M296.8 250.5h13.8v51c0 20.2 8.9 27.9 21 27.9 13.5 0 22.1-8.9 22.1-27.9v-51h13.8v49.6c0 27.7-14.6 42.8-36.5 42.8-19.5 0-34.2-10.6-34.2-42.2v-50.2z"/>
    <path d="M385.9 332.7c4.1 2.7 11.4 5.6 18.5 5.6 10.2 0 15.1-5.1 15.1-11.5 0-6.7-4-10.4-14.4-14.3-14-4.9-20.6-12.6-20.6-21.8 0-12.5 10-22.6 26.6-22.6 7.9 0 14.7 2.2 19 4.7l-3.5 10.2c-3-1.9-8.6-4.4-15.8-4.4-8.3 0-12.9 4.8-12.9 10.5 0 6.4 4.7 9.2 14.8 13.1 13.5 5.2 20.2 12 20.2 23.2 0 13.6-10.6 23.3-28.7 23.3-8.5 0-16.3-2.1-21.7-5.3l3.4-10.7z"/>
    <path d="M242.1 83v61h16V83z"/>
    <path d="M242.1 83c0 23.5 32 42.6 16 61 32-18.4 32-42.6 0-61h-16z"/>
    <path d="M120 383c0-4.3 24-78 80-36 47.3 35.5 154.5 36 180 0-25.5 85-233 85-260 36z"/>
  </g>
</svg> 