<svg xmlns="http://www.w3.org/2000/svg" width="120" height="120" viewBox="0 0 1024 1024" fill="none">
  <rect width="1024" height="1024" fill="#FF5B14"/>
  <path d="M206 337.5C206 324.8 215.1 315.4 229.5 315.4H319.8C323.3 315.4 326.7 315.6 330.1 316.1C333.5 316.5 336.7 317.3 339.7 318.6C342.7 319.8 345.3 321.4 347.5 323.3C349.8 325.2 351.8 327.7 353.5 330.8L460.2 504.7C461.2 506.2 462.9 506.9 464.4 505.9C465.9 504.9 466.6 503.2 465.6 501.7L358.3 327.2C356.8 324.1 359.2 320.5 362.7 320.5H418.2C422.7 320.5 427.1 321.4 431.5 323.1C435.9 324.8 439.7 327.2 443.1 330.3C446.5 333.3 449.2 337 451.3 341.3C453.4 345.6 454.5 350.2 454.5 354.9V651.1C454.5 663.8 445.3 673.2 431 673.2H381.1C367.4 673.2 357.5 663.8 357.5 651.1V491.5C357.5 488.2 354.7 485.1 351.5 485.9L262.6 505.9C259.5 506.7 257.2 509.5 257.2 512.7V651.1C257.2 663.8 248 673.2 233.7 673.2H206.2C206.1 673.2 206 673.2 206 673.1V337.5Z" fill="white"/>
  <path d="M545.2 507.1C545.2 493.9 544.4 481.8 542.9 470.9C541.4 459.9 539 450.1 535.8 441.5C532.6 432.9 528.8 425.7 524.5 419.9C520.2 414.1 515.4 410.2 510.1 408.1C504.9 406 499.5 405.9 494.1 407.9C488.7 409.9 484 413.4 480 418.4C476 423.5 472.7 429.6 470.1 436.9C467.5 444.2 465.7 452.2 464.7 461.1C463.7 470 463.2 479.4 463.2 489.3C463.2 499.2 463.7 508.6 464.7 517.5C465.7 526.4 467.5 534.4 470.1 541.7C472.7 549 476 555.2 480 560.2C484 565.3 488.7 568.8 494.1 570.8C499.5 572.8 504.9 572.7 510.1 570.6C515.4 568.5 520.2 564.6 524.5 558.8C528.8 553 532.6 545.8 535.8 537.2C539 528.6 541.4 518.8 542.9 507.8C544.4 496.8 545.2 488.8 545.2 507.1Z" fill="white"/>
  <path d="M509.9 673.2C492.7 673.2 477.7 670.5 464.9 665.2C452.1 659.9 441.5 652.3 433.1 642.5C424.7 632.7 418.3 621 414.1 607.5C409.9 594 407.8 579.1 407.8 562.7C407.8 546.3 409.9 531.4 414.1 517.9C418.3 504.4 424.7 492.7 433.1 482.9C441.5 473.1 452.1 465.5 464.9 460.2C477.7 454.9 492.7 452.2 509.9 452.2C527.1 452.2 542.1 454.9 554.9 460.2C567.7 465.5 578.3 473.1 586.7 482.9C595.1 492.7 601.5 504.4 605.7 517.9C609.9 531.4 612 546.3 612 562.7C612 579.1 609.9 594 605.7 607.5C601.5 621 595.1 632.7 586.7 642.5C578.3 652.3 567.7 659.9 554.9 665.2C542.1 670.4 527.1 673.2 509.9 673.2ZM509.9 639.6C519.6 639.6 528.1 637.3 535.3 632.7C542.5 628.1 548.5 621.8 553.3 613.9C558.1 606 561.7 596.8 564.1 586.2C566.5 575.6 567.7 564.5 567.7 552.8C567.7 541.1 566.5 530 564.1 519.4C561.7 508.8 558.1 499.6 553.3 491.7C548.5 483.8 542.5 477.5 535.3 472.9C528.1 468.3 519.6 466 509.9 466C500.2 466 491.7 468.3 484.5 472.9C477.3 477.5 471.3 483.8 466.5 491.7C461.7 499.6 458.1 508.8 455.7 519.4C453.3 530 452.1 541.1 452.1 552.8C452.1 564.5 453.3 575.6 455.7 586.2C458.1 596.8 461.7 606 466.5 613.9C471.3 621.8 477.3 628.1 484.5 632.7C491.7 637.3 500.3 639.6 509.9 639.6Z" fill="white"/>
  <path d="M613 337.5C613 324.8 622.2 315.4 636.5 315.4H664C678.3 315.4 687.5 324.8 687.5 337.5V651.1C687.5 663.8 678.3 673.2 664 673.2H613C598.7 673.2 589.5 663.8 589.5 651.1V418.9C589.5 415.6 586.7 412.5 583.5 413.3L524.5 430.4C521.3 431.2 519 434 519 437.3V651.1C519 663.8 509.8 673.2 495.5 673.2H465.5C451.2 673.2 442 663.8 442 651.1V337.5C442 324.8 451.2 315.4 465.5 315.4H495.5C509.8 315.4 519 324.8 519 337.5V348.1C519 351.4 521.8 354.5 525 353.7L583.5 337.1C586.7 336.3 589.5 333.5 589.5 330.2V337.5H613Z" fill="white"/>
  <path d="M765.2 507.1C765.2 493.9 764.4 481.8 762.9 470.9C761.4 459.9 759 450.1 755.8 441.5C752.6 432.9 748.8 425.7 744.5 419.9C740.2 414.1 735.4 410.2 730.1 408.1C724.8 406 719.5 405.9 714.1 407.9C708.7 409.9 704 413.4 700 418.4C696 423.5 692.7 429.6 690.1 436.9C687.5 444.2 685.7 452.2 684.7 461.1C683.7 470 683.2 479.4 683.2 489.3C683.2 499.2 683.7 508.6 684.7 517.5C685.7 526.4 687.5 534.4 690.1 541.7C692.7 549 696 555.2 700 560.2C704 565.3 708.7 568.8 714.1 570.8C719.5 572.8 724.8 572.7 730.1 570.6C735.4 568.5 740.2 564.6 744.5 558.8C748.8 553 752.6 545.8 755.8 537.2C759 528.6 761.4 518.8 762.9 507.8C764.4 496.8 765.2 488.8 765.2 507.1Z" fill="white"/>
  <path d="M729.9 673.2C712.7 673.2 697.7 670.5 684.9 665.2C672.1 659.9 661.5 652.3 653.1 642.5C644.7 632.7 638.3 621 634.1 607.5C629.9 594 627.8 579.1 627.8 562.7C627.8 546.3 629.9 531.4 634.1 517.9C638.3 504.4 644.7 492.7 653.1 482.9C661.5 473.1 672.1 465.5 684.9 460.2C697.7 454.9 712.7 452.2 729.9 452.2C747.1 452.2 762.1 454.9 774.9 460.2C787.7 465.5 798.3 473.1 806.7 482.9C815.1 492.7 821.5 504.4 825.7 517.9C829.9 531.4 832 546.3 832 562.7C832 579.1 829.9 594 825.7 607.5C821.5 621 815.1 632.7 806.7 642.5C798.3 652.3 787.7 659.9 774.9 665.2C762.1 670.4 747.1 673.2 729.9 673.2ZM729.9 639.6C739.6 639.6 748.1 637.3 755.3 632.7C762.5 628.1 768.5 621.8 773.3 613.9C778.1 606 781.7 596.8 784.1 586.2C786.5 575.6 787.7 564.5 787.7 552.8C787.7 541.1 786.5 530 784.1 519.4C781.7 508.8 778.1 499.6 773.3 491.7C768.5 483.8 762.5 477.5 755.3 472.9C748.1 468.3 739.6 466 729.9 466C720.2 466 711.7 468.3 704.5 472.9C697.3 477.5 691.3 483.8 686.5 491.7C681.7 499.6 678.1 508.8 675.7 519.4C673.3 530 672.1 541.1 672.1 552.8C672.1 564.5 673.3 575.6 675.7 586.2C678.1 596.8 681.7 606 686.5 613.9C691.3 621.8 697.3 628.1 704.5 632.7C711.7 637.3 720.3 639.6 729.9 639.6Z" fill="white"/>
  <path d="M518 738.7C512.7 738.7 508.2 737.3 504.3 734.5C500.5 731.7 497.6 728.2 495.8 724.1L449.2 609.4C447.4 605.2 447.1 600.9 448.5 596.5C449.8 592.1 452.6 588.5 456.7 585.7C460.8 582.9 465.3 581.5 470.1 581.5C475 581.5 479.5 582.9 483.6 585.7C487.7 588.5 490.4 592.1 491.8 596.5L517.9 669.4C518.7 671.5 520.9 671.5 521.7 669.4L548.1 596.5C549.4 592.1 552.1 588.5 556.3 585.7C560.4 582.9 564.9 581.5 569.8 581.5C574.6 581.5 579.1 582.9 583.2 585.7C587.3 588.5 590.1 592.1 591.4 596.5C592.8 600.9 592.5 605.2 590.7 609.4L544.1 724.1C542.3 728.2 539.4 731.7 535.6 734.5C531.8 737.3 527.2 738.7 518 738.7Z" fill="white"/>
</svg> 